# xmcd CD database file
#
# Track frame offsets:
#	150
#	15246
#	30400
#	65642
#	105334
#	121639
#	141245
#	166280
#	184974
#	211823
#
# Disc length: 3126 seconds
#
# Revision: 0
# Processed by: cddbd v1.5.2PL0 Copyright (c) Steve Scherf et al.
# Submitted via: CDex 1.51
#
DISCID=790c340a
DTITLE=Various Artist - Puglia Sounds Jazz 2012  Disc 2
DYEAR=2012
DGENRE=Jazz
TTITLE0=Livio Minafra 4tet - Surprise
TTITLE1=Giovanni Carone and Mirko Signorile - Far Libe
TTITLE2=Kekko Fornarelli - Rooms Of Mirrors
TTITLE3=Vito Di Modugno Organ Combo - East Side Blue
TTITLE4=Gianni Lenoci Hocus Pocus 3 With Steve Potts - Bucket Of Blood  Take 2
TTITLE5=Davide Santorsola - Light And Grey
TTITLE6=Guido Di Leone - Broadway
TTITLE7=Il Quattordicetto Cetra - Vecchia America
TTITLE8=Vertere String Quartet and Robertinho De Paula - Radamesy Pele
TTITLE9=Antonio Dambrosio - Sognando Il Silenzio
EXTD=YEAR: 2012
EXTT0=
EXTT1=
EXTT2=
EXTT3=
EXTT4=
EXTT5=
EXTT6=
EXTT7=
EXTT8=
EXTT9=
PLAYORDER=
